<svg width="15" height="15" viewBox="0 0 15 15" fill="none" xmlns="http://www.w3.org/2000/svg">
<path d="M5.625 2.03125C3.64023 2.03125 2.03125 3.64023 2.03125 5.625V10.0668C2.03125 10.3257 2.24112 10.5355 2.5 10.5355C2.75888 10.5355 2.96875 10.3257 2.96875 10.0668V5.625C2.96875 4.15799 4.15799 2.96875 5.625 2.96875H10.008C10.2669 2.96875 10.4768 2.75888 10.4768 2.5C10.4768 2.24112 10.2669 2.03125 10.008 2.03125H5.625Z" fill="#908E98"/>
<path fill-rule="evenodd" clip-rule="evenodd" d="M11.5016 4.24579C9.476 4.0194 7.39902 4.0194 5.37342 4.24579C4.79638 4.31028 4.33267 4.7644 4.26465 5.34592C4.02441 7.39997 4.02441 9.47502 4.26465 11.5291C4.33267 12.1106 4.79638 12.5647 5.37342 12.6292C7.39902 12.8556 9.476 12.8556 11.5016 12.6292C12.0786 12.5647 12.5424 12.1106 12.6104 11.5291C12.8506 9.47502 12.8506 7.39997 12.6104 5.34592C12.5424 4.7644 12.0786 4.31028 11.5016 4.24579ZM5.47756 5.17749C7.43394 4.95883 9.44108 4.95883 11.3975 5.17749C11.5458 5.19407 11.6624 5.31138 11.6792 5.45483C11.911 7.43652 11.911 9.43848 11.6792 11.4202C11.6624 11.5636 11.5458 11.6809 11.3975 11.6975C9.44107 11.9162 7.43394 11.9162 5.47756 11.6975C5.32921 11.6809 5.21258 11.5636 5.19581 11.4202C4.96403 9.43847 4.96403 7.43652 5.19581 5.45483C5.21258 5.31138 5.32921 5.19407 5.47756 5.17749Z" fill="#908E98"/>
</svg>
