<svg width="18" height="18" viewBox="0 0 18 18" fill="none" xmlns="http://www.w3.org/2000/svg">
<path d="M11.1274 0.755724C9.96374 -0.251906 8.03632 -0.251908 6.87267 0.755718L1.18902 5.67732C0.862604 5.95997 0.643257 6.3173 0.558619 6.70429C-0.131642 9.86038 -0.182594 13.0914 0.407904 16.2617L0.616966 17.3841C0.682999 17.7386 1.04718 18 1.47514 18H5.44662C5.7737 18 6.03885 17.7777 6.03885 17.5034V10.5517H11.9612V17.5034C11.9612 17.7777 12.2264 18 12.5534 18H16.5249C16.9528 18 17.317 17.7386 17.383 17.3841L17.5921 16.2617C18.1826 13.0914 18.1316 9.86037 17.4414 6.70429C17.3567 6.3173 17.1374 5.95997 16.811 5.67732L11.1274 0.755724Z" fill="white"/>
</svg>
