<svg width="18" height="18" viewBox="0 0 18 18" fill="none" xmlns="http://www.w3.org/2000/svg">
<path fill-rule="evenodd" clip-rule="evenodd" d="M10.679 2.08684C9.7407 1.26707 8.2593 1.26707 7.32104 2.08684L2.33485 6.44333C2.21268 6.55007 2.1305 6.68911 2.09996 6.84075C1.50274 9.80622 1.45866 12.8421 1.96956 15.8209L2.09083 16.528H5.29874V10.4326C5.29874 10.0261 5.66064 9.69656 6.10706 9.69656H11.8929C12.3394 9.69656 12.7013 10.0261 12.7013 10.4326V16.528H15.9092L16.0304 15.8209C16.5413 12.8421 16.4973 9.80622 15.9 6.84075C15.8695 6.68911 15.7873 6.55007 15.6652 6.44333L10.679 2.08684ZM6.20173 1.02471C7.76551 -0.341571 10.2345 -0.341571 11.7983 1.02471L16.7845 5.38121C17.1515 5.70191 17.3984 6.11965 17.4902 6.57525C18.1201 9.70339 18.1666 12.9058 17.6277 16.0481L17.4329 17.1839C17.3523 17.6537 16.908 18 16.3858 18H11.8929C11.4465 18 11.0846 17.6705 11.0846 17.264V11.1686H6.91538V17.264C6.91538 17.6705 6.55349 18 6.10706 18H1.61417C1.09202 18 0.64767 17.6537 0.567102 17.1839L0.372284 16.0481C-0.166649 12.9058 -0.120146 9.70339 0.509837 6.57525C0.60159 6.11965 0.848488 5.70191 1.21554 5.38121L6.20173 1.02471Z" fill="white"/>
</svg>
