<svg width="175" height="175" viewBox="0 0 175 175" fill="none" xmlns="http://www.w3.org/2000/svg">
<g clip-path="url(#clip0_83_540)">
<path d="M63.1742 -0.0047255L62.0574 0.618347L121.011 92.2233L122.128 91.6002L63.1742 -0.0047255Z" fill="#000019"/>
<path d="M79.7629 54.1138L87.5 56.4837V46.1131H80.479L79.7629 54.1138Z" fill="#F3A3A6"/>
<path d="M86.543 48.983C90.8017 48.983 94.2541 45.7687 94.2541 41.8036C94.2541 37.8385 90.8017 34.6242 86.543 34.6242C82.2844 34.6242 78.832 37.8385 78.832 41.8036C78.832 45.7687 82.2844 48.983 86.543 48.983Z" fill="#F3A3A6"/>
<path d="M84.5803 42.3673L85.6414 43.5674L87.5651 40.4338C87.5651 40.4338 90.0193 40.552 90.0193 38.8549C90.0193 37.1578 92.2718 37.1123 92.2718 37.1123C92.2718 37.1123 95.4584 31.93 88.8573 33.2968C88.8573 33.2968 84.2775 30.3753 82.0023 32.8725C82.0023 32.8725 75.0204 36.1455 77.019 41.846L80.339 47.7223L81.0909 46.3919C81.0909 46.3919 80.6352 40.8096 84.5835 42.3643L84.5803 42.3673Z" fill="#2F2E43"/>
<path d="M91.2432 169.19H98.0591V160.187H91.2432V169.19Z" fill="#F3A3A6"/>
<path d="M97.3039 174.348C96.1386 174.445 90.3057 174.876 90.0128 173.63C89.7459 172.488 90.1397 171.294 90.1951 171.13C90.7549 165.936 90.9633 165.878 91.0902 165.845C91.2887 165.79 91.8681 166.048 92.8088 166.611L92.8674 166.648L92.8804 166.711C92.8967 166.793 93.3133 168.699 95.2891 168.406C96.6432 168.205 97.0826 167.927 97.2226 167.79C97.1086 167.742 96.9654 167.657 96.8645 167.511C96.718 167.299 96.692 167.027 96.7896 166.699C97.0435 165.836 97.8052 164.56 97.8377 164.508L97.9256 164.363L105.672 169.23L110.457 170.503C110.819 170.6 111.108 170.839 111.255 171.16C111.457 171.609 111.333 172.13 110.942 172.457C110.073 173.185 108.348 174.43 106.535 174.585C106.053 174.627 105.415 174.642 104.699 174.642C101.708 174.642 97.3397 174.355 97.3072 174.348H97.3039Z" fill="#2F2E43"/>
<path d="M63.6163 155.712L69.0237 159.576L74.9107 152.432L69.5033 148.569L63.6163 155.712Z" fill="#F3A3A6"/>
<path d="M65.0472 163.238C64.0577 162.657 59.1492 159.69 59.7318 158.538C60.2657 157.48 61.3593 156.753 61.5123 156.659C65.3532 152.856 65.555 152.928 65.6787 152.971C65.874 153.041 66.1636 153.571 66.5412 154.553L66.564 154.613L66.5315 154.671C66.4924 154.744 65.5778 156.495 67.3322 157.38C68.5365 157.989 69.0671 158.017 69.2689 157.989C69.2103 157.886 69.1517 157.738 69.168 157.565C69.1908 157.314 69.347 157.083 69.64 156.877C70.4049 156.338 71.8436 155.756 71.9054 155.732L72.0682 155.665L75.0334 163.917L77.9987 167.639C78.2233 167.921 78.2949 168.275 78.2005 168.615C78.0671 169.087 77.6276 169.43 77.1036 169.466C75.9383 169.551 73.7542 169.56 72.2179 168.657C71.811 168.418 71.2935 168.069 70.7239 167.663C68.351 165.966 65.0732 163.263 65.0505 163.241L65.0472 163.238Z" fill="#2F2E43"/>
<path d="M0 174.639C0 174.839 0.172513 175 0.387341 175H174.613C174.827 175 175 174.839 175 174.639C175 174.439 174.827 174.279 174.613 174.279H0.387341C0.172513 174.279 0 174.439 0 174.639Z" fill="#2F2E43"/>
<path d="M102.271 95.5113L76.5373 97.957C76.5373 97.957 72.8624 109.203 78.1127 114.583L81.2635 129.742L67.0848 147.834L76.0132 153.213L88.6164 140.5V162.014L100.696 161.035L106.473 127.296L102.271 95.5113Z" fill="#2F2E43"/>
<path d="M90.7159 52.4803C90.7159 52.4803 88.6164 49.0588 79.6881 49.5467L77.5886 53.9471C77.5886 53.9471 71.287 55.4139 71.287 64.2147C71.287 73.0154 74.4378 99.4207 74.4378 99.4207L105.161 97.7085L90.9502 56.3503L90.7191 52.4773L90.7159 52.4803Z" fill="#CCCCCC"/>
<path d="M59.5756 14.377C58.4884 21.0745 58.9864 27.9812 60.9882 34.4878L94.7813 17.9197C94.1922 17.2682 93.59 16.6287 92.9618 16.0105C87.8938 11.0313 81.5824 7.17637 74.6559 4.85193C72.1105 5.8702 69.4674 7.08849 66.73 8.54619C64.2562 9.86145 61.9908 11.1979 59.9141 12.5435C59.7872 13.1526 59.6732 13.7618 59.5756 14.374V14.377Z" fill="#B763FF"/>
<path d="M78.7343 5.42472C82.6403 7.09153 86.2924 9.25535 89.5896 11.8192C91.7965 13.5345 93.8276 15.4377 95.6634 17.4924L117.992 6.54603C117.992 6.54603 102.483 -5.66715 75.9644 4.34887C76.8985 4.68223 77.8229 5.03984 78.7311 5.42775L78.7343 5.42472Z" fill="#B763FF"/>
<path d="M59.3478 32.2149C57.8277 26.0174 57.6389 19.5502 58.7847 13.2921C35.095 29.1965 37.354 46.0767 37.354 46.0767L60.1094 34.9212C59.8295 34.0272 59.5691 33.1271 59.3445 32.2179L59.3478 32.2149Z" fill="#B763FF"/>
<path d="M118.644 83.7012C120.652 84.5618 121.775 86.2529 121.153 87.4803C120.531 88.7077 118.396 89.0046 116.388 88.147C115.581 87.8136 114.874 87.3015 114.331 86.6469L105.871 82.9011L107.954 79.125L116.075 83.2193C116.967 83.1829 117.853 83.3466 118.65 83.7012H118.644Z" fill="#F3A3A6"/>
<path d="M113.403 86.462L92.9814 80.2524L92.9586 80.2312L77.4032 66.83C75.0205 64.7783 74.6625 61.3871 76.5731 58.9415C77.7417 57.4444 79.5514 56.5504 81.537 56.4867C83.5225 56.4231 85.3941 57.2019 86.67 58.6202L98.3521 71.6092L115.177 81.7859L113.403 86.462Z" fill="#CCCCCC"/>
</g>
<defs>
<clipPath id="clip0_83_540">
<rect width="175" height="175" fill="white"/>
</clipPath>
</defs>
</svg>
