<svg width="419" height="203" viewBox="0 0 419 203" fill="none" xmlns="http://www.w3.org/2000/svg">
<g filter="url(#filter0_d_44_15)">
<path d="M18.3861 153.5L129.688 7.82357L240.989 153.5H18.3861Z" fill="#2C2C2C" stroke="black"/>
<path d="M174.011 153.5L285.312 7.82357L396.614 153.5H174.011Z" fill="#2C2C2C" stroke="black"/>
<path d="M241.219 154H172.484L207.5 109.2L241.219 154Z" fill="#514DFF"/>
<path d="M118.619 145.018V128.568H120.546L127.925 140.999H126.891L134.176 128.568H136.103L136.127 145.018H133.871L133.847 132.116H134.388L127.902 143.02H126.821L120.288 132.116H120.875V145.018H118.619Z" fill="white"/>
<path d="M206.453 146.206C205.184 146.206 204.017 146.002 202.952 145.595C201.886 145.172 200.962 144.584 200.179 143.832C199.395 143.065 198.784 142.172 198.346 141.153C197.907 140.135 197.688 139.015 197.688 137.793C197.688 136.571 197.907 135.451 198.346 134.432C198.784 133.414 199.395 132.529 200.179 131.777C200.978 131.009 201.91 130.422 202.975 130.014C204.04 129.591 205.215 129.38 206.5 129.38C207.8 129.38 208.991 129.591 210.072 130.014C211.153 130.437 212.07 131.072 212.822 131.918L211.365 133.375C210.691 132.717 209.955 132.239 209.156 131.941C208.372 131.628 207.518 131.471 206.594 131.471C205.654 131.471 204.777 131.628 203.962 131.941C203.163 132.255 202.466 132.693 201.871 133.257C201.291 133.821 200.837 134.495 200.508 135.278C200.194 136.046 200.038 136.884 200.038 137.793C200.038 138.686 200.194 139.524 200.508 140.307C200.837 141.075 201.291 141.749 201.871 142.328C202.466 142.892 203.163 143.331 203.962 143.644C204.761 143.958 205.631 144.114 206.571 144.114C207.448 144.114 208.286 143.981 209.085 143.715C209.9 143.433 210.652 142.971 211.341 142.328L212.681 144.114C211.866 144.804 210.91 145.329 209.814 145.689C208.733 146.034 207.612 146.206 206.453 146.206ZM210.425 143.809V137.699H212.681V144.114L210.425 143.809Z" fill="white"/>
<path d="M288.635 128.568H290.985V145.018H288.635V128.568ZM279.188 145.018H276.838V128.568H279.188V145.018ZM288.846 137.686H278.953V135.641H288.846V137.686Z" fill="white"/>
</g>
<defs>
<filter id="filter0_d_44_15" x="-7" y="0" width="443" height="224" filterUnits="userSpaceOnUse" color-interpolation-filters="sRGB">
<feFlood flood-opacity="0" result="BackgroundImageFix"/>
<feColorMatrix in="SourceAlpha" type="matrix" values="0 0 0 0 0 0 0 0 0 0 0 0 0 0 0 0 0 0 127 0" result="hardAlpha"/>
<feOffset dx="7" dy="7"/>
<feGaussianBlur stdDeviation="7"/>
<feComposite in2="hardAlpha" operator="out"/>
<feColorMatrix type="matrix" values="0 0 0 0 0 0 0 0 0 0 0 0 0 0 0 0 0 0 0.25 0"/>
<feBlend mode="normal" in2="BackgroundImageFix" result="effect1_dropShadow_44_15"/>
<feBlend mode="normal" in="SourceGraphic" in2="effect1_dropShadow_44_15" result="shape"/>
</filter>
</defs>
</svg>
