<svg width="24" height="26" viewBox="0 0 24 26" fill="none" xmlns="http://www.w3.org/2000/svg">
<path d="M12 7.58333C9.92893 7.58333 8.25 9.26226 8.25 11.3333C8.25 13.4044 9.92893 15.0833 12 15.0833C14.0711 15.0833 15.75 13.4044 15.75 11.3333C15.75 9.26226 14.0711 7.58333 12 7.58333Z" fill="#908E98"/>
<path fill-rule="evenodd" clip-rule="evenodd" d="M12 0.583328C12.4142 0.583328 12.75 0.919115 12.75 1.33333V2.61502C16.9842 2.97446 20.3589 6.34914 20.7183 10.5833H22C22.4142 10.5833 22.75 10.9191 22.75 11.3333C22.75 11.7475 22.4142 12.0833 22 12.0833H20.7183C20.3589 16.3175 16.9842 19.6922 12.75 20.0516V21.3333C12.75 21.7475 12.4142 22.0833 12 22.0833C11.5858 22.0833 11.25 21.7475 11.25 21.3333V20.0516C7.01581 19.6922 3.64113 16.3175 3.28169 12.0833H2C1.58579 12.0833 1.25 11.7475 1.25 11.3333C1.25 10.9191 1.58579 10.5833 2 10.5833H3.28169C3.64113 6.34914 7.01581 2.97446 11.25 2.61502V1.33333C11.25 0.919115 11.5858 0.583328 12 0.583328ZM4.75 11.3333C4.75 15.3374 7.99594 18.5833 12 18.5833C16.0041 18.5833 19.25 15.3374 19.25 11.3333C19.25 7.32926 16.0041 4.08333 12 4.08333C7.99594 4.08333 4.75 7.32926 4.75 11.3333Z" fill="#908E98"/>
</svg>
