<svg width="18" height="15" viewBox="0 0 18 15" fill="none" xmlns="http://www.w3.org/2000/svg">
<path fill-rule="evenodd" clip-rule="evenodd" d="M4.9013 0.4375C4.46246 0.4375 4.05266 0.65682 3.80924 1.02196L1.11732 5.05983C0.952519 5.30703 0.932811 5.62358 1.06568 5.88931C2.53876 8.83547 4.58592 11.4574 7.08684 13.6011L8.39988 14.7265C8.74516 15.0225 9.25467 15.0225 9.59995 14.7265L10.913 13.6011C13.4139 11.4574 15.4611 8.83547 16.9342 5.88931C17.067 5.62358 17.0473 5.30703 16.8825 5.05983L14.1906 1.02196C13.9472 0.65682 13.5374 0.4375 13.0985 0.4375H4.9013ZM4.74529 1.64599C4.78007 1.59383 4.83861 1.5625 4.9013 1.5625H6.65616L5.21982 5.00971C5.18673 5.08912 5.16176 5.17101 5.14493 5.25418C4.61706 5.21489 4.08963 5.16752 3.56285 5.11207L2.50856 5.00109L4.74529 1.64599ZM2.4589 6.12708C3.80396 8.59456 5.58007 10.8035 7.70482 12.6484L5.36073 6.3975C4.72147 6.35356 4.08282 6.29802 3.44508 6.23089L2.4589 6.12708ZM6.58852 6.46762L8.99992 12.898L11.4113 6.46762C9.80455 6.54072 8.19529 6.54072 6.58852 6.46762ZM12.6391 6.3975L10.295 12.6484C12.4198 10.8035 14.1959 8.59455 15.5409 6.12708L14.5547 6.23089C13.917 6.29802 13.2784 6.35356 12.6391 6.3975ZM15.4913 5.00109L14.437 5.11207C13.9102 5.16752 13.3828 5.21489 12.8549 5.25418C12.8381 5.17101 12.8131 5.08912 12.78 5.00971L11.3437 1.5625H13.0985C13.1612 1.5625 13.2198 1.59383 13.2545 1.64599L15.4913 5.00109ZM11.6937 5.32754C9.89905 5.42074 8.10078 5.42074 6.30614 5.32754L7.87491 1.5625H10.1249L11.6937 5.32754Z" fill="white"/>
</svg>
