<svg width="18" height="18" viewBox="0 0 18 18" fill="none" xmlns="http://www.w3.org/2000/svg">
<path fill-rule="evenodd" clip-rule="evenodd" d="M9 1.37577L7.10881 3.33251C6.90752 3.54078 6.63029 3.65839 6.34064 3.65839H3.65839V6.34064C3.65839 6.63029 3.54078 6.90752 3.33251 7.10881L1.37577 9L3.33251 10.8912C3.54078 11.0925 3.65839 11.3697 3.65839 11.6594V14.3416H6.34064C6.63029 14.3416 6.90752 14.4592 7.10881 14.6675L9 16.6242L10.8912 14.6675C11.0925 14.4592 11.3697 14.3416 11.6594 14.3416H14.3416V11.6594C14.3416 11.3697 14.4592 11.0925 14.6675 10.8912L16.6242 9L14.6675 7.10882C14.4592 6.90753 14.3416 6.63029 14.3416 6.34064V3.65839H11.6594C11.3697 3.65839 11.0925 3.54078 10.8912 3.33251L9 1.37577ZM8.23182 0.325881C8.65177 -0.108628 9.34822 -0.108627 9.76817 0.325882L11.75 2.3764H14.5553C15.1453 2.3764 15.6236 2.85471 15.6236 3.44473V6.25L17.6741 8.23182C18.1086 8.65178 18.1086 9.34823 17.6741 9.76818L15.6236 11.75V14.5553C15.6236 15.1453 15.1453 15.6236 14.5553 15.6236H11.75L9.76817 17.6741C9.34822 18.1086 8.65177 18.1086 8.23182 17.6741L6.24999 15.6236H3.44473C2.85471 15.6236 2.3764 15.1453 2.3764 14.5553V11.75L0.325881 9.76818C-0.108627 9.34823 -0.108627 8.65178 0.325881 8.23183L2.3764 6.25V3.44473C2.3764 2.85471 2.85471 2.3764 3.44473 2.3764H6.25L8.23182 0.325881Z" fill="white"/>
<path fill-rule="evenodd" clip-rule="evenodd" d="M4.94038 9C4.94038 6.75793 6.75793 4.94038 9 4.94038C11.2421 4.94038 13.0596 6.75793 13.0596 9C13.0596 11.2421 11.2421 13.0596 9 13.0596C6.75793 13.0596 4.94038 11.2421 4.94038 9ZM9 6.22236C7.46595 6.22236 6.22236 7.46595 6.22236 9C6.22236 10.534 7.46595 11.7776 9 11.7776C10.534 11.7776 11.7776 10.534 11.7776 9C11.7776 7.46595 10.534 6.22236 9 6.22236Z" fill="white"/>
</svg>
