<svg width="18" height="18" viewBox="0 0 18 18" fill="none" xmlns="http://www.w3.org/2000/svg">
<path d="M6.56247 8.99998C6.56247 7.65378 7.65378 6.56248 8.99997 6.56248C10.3462 6.56248 11.4375 7.65378 11.4375 8.99998C11.4375 10.3462 10.3462 11.4375 8.99997 11.4375C7.65378 11.4375 6.56247 10.3462 6.56247 8.99998Z" fill="white"/>
<path fill-rule="evenodd" clip-rule="evenodd" d="M8.59551 1.37886C8.81662 1.15008 9.18332 1.15008 9.40444 1.37886L11.3337 3.37498H14.0625C14.3731 3.37498 14.625 3.62682 14.625 3.93748V6.66627L16.6211 8.59551C16.8499 8.81663 16.8499 9.18332 16.6211 9.40444L14.625 11.3337V14.0625C14.625 14.3731 14.3731 14.625 14.0625 14.625H11.3337L9.40444 16.6211C9.18332 16.8499 8.81662 16.8499 8.59551 16.6211L6.66627 14.625H3.93748C3.62682 14.625 3.37498 14.3731 3.37498 14.0625V11.3337L1.37886 9.40444C1.15008 9.18333 1.15008 8.81663 1.37886 8.59551L3.37498 6.66627V3.93748C3.37498 3.62682 3.62682 3.37498 3.93748 3.37498H6.66627L8.59551 1.37886ZM8.99997 5.43748C7.03246 5.43748 5.43747 7.03246 5.43747 8.99998C5.43747 10.9675 7.03246 12.5625 8.99997 12.5625C10.9675 12.5625 12.5625 10.9675 12.5625 8.99998C12.5625 7.03246 10.9675 5.43748 8.99997 5.43748Z" fill="white"/>
</svg>
