<svg width="24" height="24" viewBox="0 0 24 24" fill="none" xmlns="http://www.w3.org/2000/svg">
<path d="M7.28033 6.28033C7.57322 5.98744 7.57322 5.51256 7.28033 5.21967C6.98744 4.92678 6.51256 4.92678 6.21967 5.21967L4.21967 7.21967C3.92678 7.51256 3.92678 7.98744 4.21967 8.28033L6.21967 10.2803C6.51256 10.5732 6.98744 10.5732 7.28033 10.2803C7.57322 9.98744 7.57322 9.51256 7.28033 9.21967L6.56066 8.5H16.75C17.1642 8.5 17.5 8.16421 17.5 7.75C17.5 7.33579 17.1642 7 16.75 7H6.56066L7.28033 6.28033Z" fill="#908E98"/>
<path d="M16.2197 13.2197C15.9268 13.5126 15.9268 13.9874 16.2197 14.2803L16.9393 15H6.75C6.33579 15 6 15.3358 6 15.75C6 16.1642 6.33579 16.5 6.75 16.5H16.9393L16.2197 17.2197C15.9268 17.5126 15.9268 17.9874 16.2197 18.2803C16.5126 18.5732 16.9874 18.5732 17.2803 18.2803L19.2803 16.2803C19.5732 15.9874 19.5732 15.5126 19.2803 15.2197L17.2803 13.2197C16.9874 12.9268 16.5126 12.9268 16.2197 13.2197Z" fill="#908E98"/>
</svg>
