<svg width="192" height="192" viewBox="0 0 192 192" fill="none" xmlns="http://www.w3.org/2000/svg">
<g clip-path="url(#clip0_144_478)">
<rect width="192" height="192" fill="white"/>
<path d="M57.375 53L113.125 117.5H1.62461L57.375 53Z" fill="#424040"/>
<path d="M2.71768 117L57.375 53.7646L112.032 117H2.71768Z" stroke="black" stroke-opacity="0.35"/>
<path d="M134.625 53L190.375 117.5H78.8746L134.625 53Z" fill="#424040"/>
<path d="M79.9677 117L134.625 53.7646L189.282 117H79.9677Z" stroke="black" stroke-opacity="0.35"/>
<path d="M112.737 117.5H78.6187L95.9999 97.8429L112.737 117.5Z" fill="#5E5BF1"/>
<path d="M40.5225 115V104.85H41.7115L46.2645 112.52H45.6265L50.1215 104.85H51.3105L51.325 115H49.933L49.9185 107.039H50.252L46.25 113.767H45.583L41.552 107.039H41.9145V115H40.5225Z" fill="white"/>
<path d="M96.1045 115.116C95.3215 115.116 94.6013 114.99 93.944 114.739C93.2867 114.478 92.7163 114.115 92.233 113.651C91.7497 113.178 91.3727 112.627 91.102 111.998C90.8313 111.37 90.696 110.679 90.696 109.925C90.696 109.171 90.8313 108.48 91.102 107.851C91.3727 107.223 91.7497 106.677 92.233 106.213C92.726 105.739 93.3012 105.377 93.9585 105.125C94.6158 104.864 95.3408 104.734 96.1335 104.734C96.9358 104.734 97.6705 104.864 98.3375 105.125C99.0045 105.386 99.57 105.778 100.034 106.3L99.135 107.199C98.7193 106.793 98.265 106.498 97.772 106.314C97.2887 106.121 96.7618 106.024 96.1915 106.024C95.6115 106.024 95.0702 106.121 94.5675 106.314C94.0745 106.508 93.6443 106.778 93.277 107.126C92.9193 107.474 92.639 107.89 92.436 108.373C92.2427 108.847 92.146 109.364 92.146 109.925C92.146 110.476 92.2427 110.993 92.436 111.476C92.639 111.95 92.9193 112.366 93.277 112.723C93.6443 113.071 94.0745 113.342 94.5675 113.535C95.0605 113.729 95.597 113.825 96.177 113.825C96.7183 113.825 97.2355 113.743 97.7285 113.579C98.2312 113.405 98.6952 113.12 99.1205 112.723L99.947 113.825C99.4443 114.251 98.8547 114.575 98.178 114.797C97.511 115.01 96.8198 115.116 96.1045 115.116ZM98.555 113.637V109.867H99.947V113.825L98.555 113.637Z" fill="white"/>
<path d="M143.802 104.85H145.252V115H143.802V104.85ZM137.973 115H136.523V104.85H137.973V115ZM143.932 110.476H137.828V109.214H143.932V110.476Z" fill="white"/>
</g>
<defs>
<clipPath id="clip0_144_478">
<rect width="192" height="192" fill="white"/>
</clipPath>
</defs>
</svg>
