<svg width="512" height="512" viewBox="0 0 512 512" fill="none" xmlns="http://www.w3.org/2000/svg">
<g clip-path="url(#clip0_144_477)">
<rect width="512" height="512" fill="white"/>
<path d="M152.188 137L301.306 314.75H3.06876L152.188 137Z" fill="#424040"/>
<path d="M4.14086 314.25L152.188 137.778L300.234 314.25H4.14086Z" stroke="black" stroke-opacity="0.35"/>
<path d="M358.812 137L507.931 314.75H209.694L358.812 137Z" fill="#424040"/>
<path d="M210.766 314.25L358.812 137.778L506.859 314.25H210.766Z" stroke="black" stroke-opacity="0.35"/>
<path d="M300.269 314.75H209.009L255.5 260.579L300.269 314.75Z" fill="#5E5BF1"/>
<path d="M132.008 313V290.6H135.432L145.224 306.952H143.432L153.064 290.6H156.488L156.52 313H152.584L152.552 296.776H153.384L145.192 310.44H143.336L135.016 296.776H135.976V313H132.008Z" fill="white"/>
<path d="M257.472 313.32C255.723 313.32 254.112 313.043 252.64 312.488C251.189 311.912 249.92 311.112 248.832 310.088C247.744 309.043 246.901 307.816 246.304 306.408C245.707 305 245.408 303.464 245.408 301.8C245.408 300.136 245.707 298.6 246.304 297.192C246.901 295.784 247.744 294.568 248.832 293.544C249.941 292.499 251.232 291.699 252.704 291.144C254.176 290.568 255.787 290.28 257.536 290.28C259.435 290.28 261.141 290.589 262.656 291.208C264.192 291.827 265.483 292.733 266.528 293.928L263.904 296.488C263.029 295.613 262.08 294.973 261.056 294.568C260.053 294.141 258.944 293.928 257.728 293.928C256.555 293.928 255.467 294.12 254.464 294.504C253.461 294.888 252.597 295.432 251.872 296.136C251.147 296.84 250.581 297.672 250.176 298.632C249.792 299.592 249.6 300.648 249.6 301.8C249.6 302.931 249.792 303.976 250.176 304.936C250.581 305.896 251.147 306.739 251.872 307.464C252.597 308.168 253.451 308.712 254.432 309.096C255.413 309.48 256.501 309.672 257.696 309.672C258.805 309.672 259.872 309.501 260.896 309.16C261.941 308.797 262.933 308.2 263.872 307.368L266.24 310.472C265.067 311.411 263.701 312.125 262.144 312.616C260.608 313.085 259.051 313.32 257.472 313.32ZM262.304 309.928V301.544H266.24V310.472L262.304 309.928Z" fill="white"/>
<path d="M364.752 290.6H368.912V313H364.752V290.6ZM353.168 313H349.008V290.6H353.168V313ZM365.072 303.4H352.816V299.848H365.072V303.4Z" fill="white"/>
</g>
<defs>
<clipPath id="clip0_144_477">
<rect width="512" height="512" fill="white"/>
</clipPath>
</defs>
</svg>
